<svg width="59" height="60" viewBox="0 0 59 60" fill="none" xmlns="http://www.w3.org/2000/svg">
<g clip-path="url(#clip0_405_1695)">
<path d="M11.9523 14.0149L2.47599 23.8125C0.937212 25.4796 0.0786743 27.6955 0.0786743 30C0.0786743 32.3044 0.937212 34.5203 2.47599 36.1875L11.9523 45.985C12.2868 46.3431 12.6871 46.6288 13.1296 46.8253C13.5721 47.0219 14.048 47.1253 14.5296 47.1297C15.0112 47.134 15.4888 47.0391 15.9346 46.8505C16.3803 46.662 16.7853 46.3835 17.1259 46.0314C17.4664 45.6793 17.7357 45.2607 17.9181 44.7998C18.1005 44.3389 18.1923 43.8451 18.1881 43.3472C18.1839 42.8493 18.0838 42.3572 17.8937 41.8997C17.7036 41.4422 17.4273 41.0284 17.0809 40.6825L10.3612 33.73L54.4903 33.6725C55.4522 33.6725 56.3748 33.2774 57.055 32.5741C57.7352 31.8708 58.1173 30.917 58.1173 29.9225C58.1173 28.9279 57.7352 27.9741 57.055 27.2708C56.3748 26.5675 55.4522 26.1725 54.4903 26.1725L10.3975 26.23L17.0809 19.3175C17.7416 18.6102 18.1072 17.6629 18.0989 16.6797C18.0907 15.6965 17.7092 14.7559 17.0367 14.0606C16.3642 13.3654 15.4545 12.971 14.5035 12.9624C13.5525 12.9539 12.6363 13.3319 11.9523 14.0149V14.0149Z" fill="#374957"/>
</g>
<defs>
<clipPath id="clip0_405_1695">
<rect width="58.0328" height="60" fill="white"/>
</clipPath>
</defs>
</svg>
